<svg width="54" height="53" viewBox="0 0 54 53" fill="none" xmlns="http://www.w3.org/2000/svg">
<g opacity="0.5">
<path d="M36.8801 11.9427L41.5573 16.6177L36.8801 11.9427ZM39.8878 7.82412L27.2407 20.4712C26.5872 21.1238 26.1416 21.9552 25.9599 22.8607L24.7917 28.7083L30.6393 27.5379C31.5448 27.3568 32.3751 26.913 33.0288 26.2593L45.6759 13.6122C46.0559 13.2321 46.3574 12.7809 46.5631 12.2844C46.7688 11.7878 46.8746 11.2556 46.8746 10.7181C46.8746 10.1807 46.7688 9.64847 46.5631 9.15191C46.3574 8.65535 46.0559 8.20417 45.6759 7.82412C45.2958 7.44408 44.8447 7.14261 44.3481 6.93692C43.8515 6.73124 43.3193 6.62538 42.7819 6.62538C42.2444 6.62538 41.7122 6.73124 41.2156 6.93692C40.7191 7.14261 40.2679 7.44408 39.8878 7.82412V7.82412Z" stroke="url(#paint0_linear_5_66)" stroke-width="5" stroke-linecap="round" stroke-linejoin="round"/>
<path d="M42.4583 33.125V39.75C42.4583 40.9214 41.993 42.0448 41.1647 42.8731C40.3364 43.7013 39.213 44.1667 38.0417 44.1667H13.75C12.5786 44.1667 11.4552 43.7013 10.6269 42.8731C9.79866 42.0448 9.33334 40.9214 9.33334 39.75V15.4583C9.33334 14.287 9.79866 13.1636 10.6269 12.3353C11.4552 11.507 12.5786 11.0417 13.75 11.0417H20.375" stroke="url(#paint1_linear_5_66)" stroke-width="5" stroke-linecap="round" stroke-linejoin="round"/>
</g>
<defs>
<linearGradient id="paint0_linear_5_66" x1="46.8746" y1="28.7083" x2="27.645" y2="4.37088" gradientUnits="userSpaceOnUse">
<stop stop-color="#6246EA"/>
<stop offset="1" stop-color="#C9BFF7"/>
</linearGradient>
<linearGradient id="paint1_linear_5_66" x1="42.4583" y1="44.1667" x2="13.6134" y2="7.65986" gradientUnits="userSpaceOnUse">
<stop stop-color="#6246EA"/>
<stop offset="1" stop-color="#C9BFF7"/>
</linearGradient>
</defs>
</svg>
